<svg xmlns="http://www.w3.org/2000/svg" version="1.1" xmlns:xlink="http://www.w3.org/1999/xlink" xmlns:svgjs="http://svgjs.dev/svgjs" width="1440" height="560" preserveAspectRatio="none" viewBox="0 0 1440 560"><g mask="url(&quot;#SvgjsMask1019&quot;)" fill="none"><rect width="1440" height="560" x="0" y="0" fill="url(&quot;#SvgjsLinearGradient1020&quot;)"></rect><path d="M583.742341014901 237.09459334350066L752.2650266891553 204.50374477554954 655.8180494311789 89.56271313350425z" fill="rgba(28, 83, 142, 0.4)" class="triangle-float1"></path><path d="M642.152,442.969C678.61,440.158,706.845,414.032,724.278,381.889C740.789,351.445,742.733,316.272,727.82,285.014C710.278,248.244,682.865,211.219,642.152,209.749C599.693,208.216,566.246,241.589,545.059,278.417C523.941,315.126,513.194,360.029,534.715,396.503C555.967,432.521,600.456,446.183,642.152,442.969" fill="rgba(28, 83, 142, 0.4)" class="triangle-float1"></path><path d="M1084.7963277392137 512.9944522520191L1221.0197137893463 527.3121070681192 1099.113982555314 376.77106620188647z" fill="rgba(28, 83, 142, 0.4)" class="triangle-float1"></path><path d="M482.80469090232975-35.52197209662975L518.750374978709 98.62914718923739 652.9014942645762 62.68346311285809 616.9558101881969-71.46765617300905z" fill="rgba(28, 83, 142, 0.4)" class="triangle-float3"></path><path d="M1001.159,387.349C1053.857,387.215,1097.344,351.181,1124.029,305.739C1151.116,259.612,1162.753,203.263,1136.693,156.548C1110.057,108.8,1055.796,83.455,1001.159,85.481C949.811,87.385,907.131,121.185,881.984,165.994C857.426,209.754,853.411,262.185,877.199,306.368C902.276,352.946,948.26,387.484,1001.159,387.349" fill="rgba(28, 83, 142, 0.4)" class="triangle-float1"></path><path d="M591.553,555.584C623.24,553.002,650.003,535.419,667.159,508.653C686.104,479.095,699.742,443.029,683.718,411.791C666.579,378.379,629.097,361.98,591.553,361.264C552.598,360.521,513.652,375.06,493.095,408.157C471.443,443.016,468.305,488.876,491.096,523.001C512.051,554.378,553.947,558.649,591.553,555.584" fill="rgba(28, 83, 142, 0.4)" class="triangle-float3"></path><path d="M930.1447344797673 143.81078111016467L910.5618021311326 267.45254988813576 1034.2035709091037 287.03548223677046 1053.7865032577383 163.39371345879934z" fill="rgba(28, 83, 142, 0.4)" class="triangle-float1"></path><path d="M187.45204053469402 192.6330635480117L178.6725442466922 360.15583226877663 346.1953129674572 368.9353285567785 354.974809255459 201.41255983601351z" fill="rgba(28, 83, 142, 0.4)" class="triangle-float1"></path><path d="M1306.447770507425 429.1954506707129L1270.7727695206281 522.1320056243583 1363.7093244742734 557.8070066111553 1399.3843254610704 464.8704516575099z" fill="rgba(28, 83, 142, 0.4)" class="triangle-float1"></path><path d="M1432.4686165096045 156.7559413657434L1491.2880591141447 89.09191286313086 1423.6240306115324 30.2724702585906 1364.804588006992 97.93649876120315z" fill="rgba(28, 83, 142, 0.4)" class="triangle-float3"></path><path d="M730.8574911261409 125.69402510172145L865.2351945077843 149.52050855156898 826.3950860857437 36.72064318217039z" fill="rgba(28, 83, 142, 0.4)" class="triangle-float3"></path><path d="M170.41538196866765 79.69149705644757L245.25140477775693 122.89809497035625 272.6432902440753-10.959238200231987z" fill="rgba(28, 83, 142, 0.4)" class="triangle-float3"></path></g><defs><mask id="SvgjsMask1019"><rect width="1440" height="560" fill="#ffffff"></rect></mask><linearGradient x1="15.28%" y1="-39.29%" x2="84.72%" y2="139.29%" gradientUnits="userSpaceOnUse" id="SvgjsLinearGradient1020"><stop stop-color="#0e2a47" offset="0"></stop><stop stop-color="#00459e" offset="1"></stop></linearGradient><style>
                @keyframes float1 {
                    0%{transform: translate(0, 0)}
                    50%{transform: translate(-10px, 0)}
                    100%{transform: translate(0, 0)}
                }

                .triangle-float1 {
                    animation: float1 5s infinite;
                }

                @keyframes float2 {
                    0%{transform: translate(0, 0)}
                    50%{transform: translate(-5px, -5px)}
                    100%{transform: translate(0, 0)}
                }

                .triangle-float2 {
                    animation: float2 4s infinite;
                }

                @keyframes float3 {
                    0%{transform: translate(0, 0)}
                    50%{transform: translate(0, -10px)}
                    100%{transform: translate(0, 0)}
                }

                .triangle-float3 {
                    animation: float3 6s infinite;
                }
            </style></defs></svg>