<svg xmlns="http://www.w3.org/2000/svg" viewBox="0 0 64 64" id="car"><path fill="#222" d="M14.193 37.01a4.78 4.78 0 1 0 4.78 4.78 4.784 4.784 0 0 0-4.78-4.78Zm1.06 5.84a2 2 0 0 1-.22.19c-.09.05-.17.1-.26.14s-.19.06-.28.08a1.5 1.5 0 0 1-1.36-.41 1.018 1.018 0 0 1-.18-.23.939.939 0 0 1-.14-.26 1.309 1.309 0 0 1-.09-.28 1.417 1.417 0 0 1 0-.58 1.309 1.309 0 0 1 .09-.28.939.939 0 0 1 .14-.26 1.3 1.3 0 0 1 .18-.23 2.11 2.11 0 0 1 .23-.19 1.264 1.264 0 0 1 .26-.13 1.309 1.309 0 0 1 .28-.09 1.465 1.465 0 0 1 .59 0 1.518 1.518 0 0 1 .28.09 1.577 1.577 0 0 1 .26.13 2 2 0 0 1 .22.19 2.11 2.11 0 0 1 .19.23 2.148 2.148 0 0 1 .14.26 2.288 2.288 0 0 1 .08.28 1.358 1.358 0 0 1 .03.29 1.5 1.5 0 0 1-.44 1.06Zm34.11-5.84a4.78 4.78 0 1 0 4.78 4.78 4.784 4.784 0 0 0-4.78-4.78Zm1.47 5.07a.9.9 0 0 1-.08.28 1.078 1.078 0 0 1-.14.26 1.059 1.059 0 0 1-.19.23 2 2 0 0 1-.22.19 2.148 2.148 0 0 1-.26.14c-.09.03-.19.06-.28.08a1.5 1.5 0 0 1-1.36-.41 1.018 1.018 0 0 1-.18-.23 1.078 1.078 0 0 1-.14-.26 1.309 1.309 0 0 1-.09-.28 1.417 1.417 0 0 1 0-.58 1.688 1.688 0 0 1 .41-.77 1.471 1.471 0 0 1 1.64-.32 1.264 1.264 0 0 1 .26.13 2 2 0 0 1 .22.19 1.365 1.365 0 0 1 .19.23 1.3 1.3 0 0 1 .14.26.9.9 0 0 1 .08.28 1.417 1.417 0 0 1 0 .58Zm10.02-7.98h-3.68a.988.988 0 0 1-.45-.1l-.91-.46a1 1 0 1 1 .89-1.79l.71.35h2.61c-.03-.04-.05-.09-.08-.14a3.938 3.938 0 0 0-2.66-1.87l-9.05-1.78a1.027 1.027 0 0 1-.49-.24l-7.21-6.66a14.94 14.94 0 0 0-10.18-3.98h-10.94c-3.91 0-7.47 1.81-11.92 6.03-.73.69-1.35 1.25-1.88 1.72-1.76 1.56-2.34 2.09-2.54 4.11a1 1 0 0 1 1.02-.42l2.06.4a1 1 0 0 1 .81.98v.61a1 1 0 0 1-1 1 .979.979 0 0 1-.97-.78l-1.28-.25A.977.977 0 0 1 3 30.25c-.03.67-.04 1.47-.04 2.46a5.28 5.28 0 0 0 .14 1.33l.05.25c.46 2.51 1.24 5.17 4.55 5.58a6.765 6.765 0 0 1 13 .06h22.15a6.77 6.77 0 0 1 13.01-.05c1.63-.18 3.87-.93 4.85-2.94a4.082 4.082 0 0 0 .143-2.84Zm-17.43-5.76H9a1 1 0 0 1-.95-.68 1.02 1.02 0 0 1 .33-1.11l6.71-5.26a1 1 0 0 1 1.4.17.991.991 0 0 1-.17 1.4l-4.42 3.48h9.27v-5.55a1 1 0 0 1 2 0v5.55H31v-5.55a1 1 0 0 1 2 0v5.55h10.42a1 1 0 0 1 0 2Z"></path></svg>