<svg xmlns="http://www.w3.org/2000/svg" viewBox="0 0 64 64" id="seat"><rect width="15.559" height="2" x="24.221" y="18.368"></rect><path d="M56.736,55.221V48.379a3.647,3.647,0,0,0-3.642-3.643H51.75V20.254a7.191,7.191,0,0,0-7.184-7.182h-1.46a3.286,3.286,0,0,0,.266-1.294V5.794A3.3,3.3,0,0,0,40.079,2.5H23.921a3.3,3.3,0,0,0-3.293,3.294v5.984a3.286,3.286,0,0,0,.266,1.294h-1.46a7.191,7.191,0,0,0-7.184,7.182V44.736H10.906a3.647,3.647,0,0,0-3.642,3.643v6.842a7.68,7.68,0,0,0,7.672,7.672H49.064A7.68,7.68,0,0,0,56.736,55.221ZM36,4.5V7H28V4.5ZM22.628,11.778V5.794A1.3,1.3,0,0,1,23.921,4.5H26V8a1,1,0,0,0,1,1H37a1,1,0,0,0,1-1V4.5h2.079a1.3,1.3,0,0,1,1.293,1.294v5.984a1.3,1.3,0,0,1-1.293,1.294H23.921A1.3,1.3,0,0,1,22.628,11.778ZM14.25,20.254a5.189,5.189,0,0,1,5.184-5.182H44.566a5.189,5.189,0,0,1,5.184,5.182V44.736h-.738a4.175,4.175,0,0,0-3.575,2.037l-1.865,3.149H40.779V28.9a3.217,3.217,0,0,0-3.215-3.214H26.436A3.217,3.217,0,0,0,23.221,28.9v21.02H20.428l-1.866-3.149a4.172,4.172,0,0,0-3.574-2.037H14.25ZM38.779,41.7H25.221V28.9a1.216,1.216,0,0,1,1.215-1.214H37.564A1.216,1.216,0,0,1,38.779,28.9Zm-13.558,2H38.779v6.227H25.221ZM9.264,55.221V48.379a1.645,1.645,0,0,1,1.642-1.643h4.082a2.164,2.164,0,0,1,1.854,1.057L19,51.432a1,1,0,0,0,.86.49H44.143a1,1,0,0,0,.86-.49l2.155-3.639a2.166,2.166,0,0,1,1.854-1.057h4.082a1.645,1.645,0,0,1,1.642,1.643v6.842a5.678,5.678,0,0,1-5.672,5.672H14.936A5.678,5.678,0,0,1,9.264,55.221Z"></path></svg>