<?xml version="1.0" standalone="no"?>
<!DOCTYPE svg PUBLIC "-//W3C//DTD SVG 20010904//EN"
 "http://www.w3.org/TR/2001/REC-SVG-20010904/DTD/svg10.dtd">
<svg version="1.0" xmlns="http://www.w3.org/2000/svg"
 width="500.000000pt" height="500.000000pt" viewBox="0 0 500.000000 500.000000"
 preserveAspectRatio="xMidYMid meet">

<g transform="translate(0.000000,500.000000) scale(0.100000,-0.100000)"
fill="#000000" stroke="none">
<path d="M2365 4130 c-158 -15 -355 -65 -496 -125 -455 -195 -820 -608 -943
-1068 -53 -200 -61 -253 -61 -447 0 -190 7 -243 57 -430 74 -284 219 -524 449
-745 257 -246 564 -392 927 -440 207 -28 423 -13 643 45 140 36 229 72 360
146 487 273 789 747 839 1316 32 367 -96 785 -339 1103 -227 298 -539 507
-886 593 -203 51 -382 68 -550 52z m486 -188 c216 -57 369 -131 536 -256 257
-193 434 -440 533 -744 50 -153 70 -283 70 -454 0 -209 -31 -361 -115 -569
-220 -545 -765 -909 -1362 -909 -211 0 -390 36 -592 119 -354 145 -659 450
-792 793 -84 216 -113 362 -113 573 0 161 11 248 51 390 50 176 95 274 193
420 211 313 502 526 856 625 147 42 218 49 424 46 181 -3 204 -5 311 -34z"/>
<path d="M2353 3859 c-183 -19 -369 -83 -543 -187 -281 -169 -508 -448 -609
-750 -99 -294 -87 -644 31 -944 94 -238 300 -487 523 -630 239 -154 464 -220
755 -220 231 0 400 37 585 129 166 83 247 140 378 271 206 204 344 476 382
752 50 360 -20 676 -213 970 -77 117 -272 312 -383 383 -178 114 -376 196
-527 217 -109 15 -281 19 -379 9z m367 -133 c148 -27 334 -101 450 -179 154
-105 303 -260 405 -423 111 -177 201 -517 149 -568 -19 -20 -68 -21 -84 -1 -6
8 -16 48 -21 90 -17 138 -70 281 -160 431 -76 128 -259 310 -389 386 -263 156
-511 199 -792 138 -107 -23 -211 -66 -337 -139 -77 -44 -121 -80 -222 -181
-103 -102 -137 -143 -186 -227 -69 -117 -126 -276 -142 -397 -12 -86 -30 -116
-68 -116 -22 0 -63 31 -63 48 0 52 38 222 68 312 62 182 146 313 297 466 193
194 384 299 645 355 104 22 340 24 450 5z m112 -545 c193 -39 225 -70 317
-308 l21 -53 -33 0 c-32 0 -34 2 -76 103 -60 144 -80 162 -207 191 -235 52
-670 34 -805 -35 -45 -22 -66 -57 -110 -171 -32 -86 -33 -88 -66 -88 -18 0
-33 2 -33 5 0 12 50 136 74 182 58 116 111 148 291 177 147 23 164 24 355 20
121 -2 205 -10 272 -23z m-1092 -317 c11 -29 1 -86 -15 -82 -5 2 -9 16 -7 32
2 28 2 29 -16 13 -12 -11 -36 -17 -70 -17 -29 0 -52 -4 -52 -10 0 -5 18 -19
40 -30 43 -22 55 -46 18 -35 -46 13 -73 41 -76 78 -3 29 1 38 19 48 35 18 70
27 112 28 32 1 39 -3 47 -25z m1657 7 c23 -11 44 -29 48 -41 9 -29 -18 -68
-60 -86 -42 -17 -45 -17 -45 -1 0 7 15 19 34 25 19 7 40 19 46 27 11 13 4 15
-47 15 -33 0 -64 5 -71 12 -9 9 -12 4 -12 -22 -1 -33 -1 -34 -15 -16 -18 24
-20 77 -3 94 18 18 77 14 125 -7z m-497 -70 c95 -16 111 -21 106 -30 -3 -4 18
-2 47 6 100 26 160 13 227 -46 l35 -32 -42 27 c-108 68 -210 38 -378 -110 -39
-34 -38 -34 70 20 107 53 216 86 232 70 14 -14 7 -124 -10 -149 -9 -15 -30
-27 -49 -31 -19 -3 -67 -22 -108 -41 -40 -20 -80 -33 -87 -31 -8 3 -12 2 -9
-3 3 -4 -12 -16 -34 -26 -50 -23 -45 -30 8 -14 33 9 48 9 86 -4 26 -9 82 -21
124 -28 71 -11 82 -10 124 8 36 17 49 30 64 63 18 40 20 42 54 36 56 -8 12 12
-72 33 l-73 19 4 73 c2 41 4 75 6 77 1 2 36 -21 78 -50 41 -29 89 -61 106 -70
22 -12 31 -24 31 -42 0 -38 -10 -55 -28 -49 -13 4 -12 2 3 -10 18 -14 19 -19
7 -114 -12 -98 -52 -266 -72 -303 -9 -17 -15 -14 -63 35 -56 55 -109 88 -164
100 l-33 7 36 -54 c52 -78 71 -95 130 -119 30 -13 54 -26 54 -29 0 -9 -105
-36 -193 -51 -38 -6 -96 -8 -130 -5 -90 9 -88 9 -136 -8 -160 -60 -548 -59
-708 2 -36 14 -56 16 -74 9 -36 -14 -193 -1 -291 23 -49 13 -88 26 -88 30 0 5
17 14 38 20 64 20 108 56 141 114 18 30 37 57 44 60 7 3 -6 3 -28 -1 -57 -8
-86 -25 -159 -93 l-64 -61 -21 63 c-25 79 -47 179 -61 283 -9 72 -9 81 7 94
15 11 15 13 2 8 -13 -4 -18 3 -22 30 -4 20 -4 40 -1 45 3 5 31 22 62 38 31 16
78 46 105 66 l47 36 0 -44 c0 -24 4 -58 9 -76 9 -30 8 -32 -17 -38 -63 -13
-164 -46 -159 -51 3 -3 19 -1 35 5 27 9 29 8 50 -38 19 -41 29 -51 68 -66 41
-16 54 -16 123 -5 42 7 96 21 121 30 39 15 51 16 80 5 52 -19 60 -16 17 7 -21
11 -35 24 -32 29 11 17 159 58 250 69 182 22 392 8 520 -34 39 -13 71 -22 73
-20 8 8 -146 58 -215 70 -104 19 -290 19 -399 0 -49 -9 -127 -31 -173 -50
l-84 -34 -46 24 c-25 12 -73 31 -106 41 -33 10 -66 23 -74 30 -8 7 -16 41 -19
83 -4 60 -2 72 13 77 30 12 126 -17 221 -67 51 -27 96 -49 99 -49 19 0 -128
114 -181 141 -54 27 -71 31 -118 27 -37 -3 -68 -13 -95 -31 -58 -39 -61 -33
-6 12 65 54 123 63 222 38 33 -9 51 -10 50 -3 -2 10 54 21 193 36 110 11 616
5 700 -9z m-1106 -307 c21 -8 21 -60 0 -68 -9 -4 -23 -1 -30 5 -17 14 -18 56
-1 62 6 3 13 6 14 6 1 1 8 -2 17 -5z m1454 -6 c26 -26 2 -75 -31 -62 -22 8
-29 32 -17 55 12 22 30 25 48 7z m-1885 -66 c9 -10 21 -51 28 -92 39 -252 140
-452 318 -630 205 -204 467 -323 742 -337 315 -16 610 101 844 333 175 174
280 379 319 620 18 115 49 147 104 108 27 -18 28 -56 7 -167 -57 -296 -204
-548 -426 -727 -131 -106 -227 -161 -367 -210 -198 -70 -372 -92 -553 -70
-493 60 -908 386 -1048 825 -21 66 -44 154 -50 195 -7 41 -14 85 -17 98 -3 15
4 31 20 47 30 29 57 32 79 7z m546 -511 c45 -5 85 -12 89 -16 11 -12 -139 3
-188 19 -30 10 -35 14 -13 10 17 -3 68 -9 112 -13z m1329 14 c-10 -10 -160
-35 -201 -34 -52 2 -28 8 88 24 115 16 119 16 113 10z m-1238 -160 c0 -13 -22
-15 -140 -15 -118 0 -140 2 -140 15 0 13 22 15 140 15 118 0 140 -2 140 -15z
m1280 0 c0 -10 -233 -20 -258 -10 -7 2 -10 10 -7 15 9 14 265 9 265 -5z m-904
-116 c12 -20 -12 -24 -128 -24 -258 0 -318 4 -318 20 0 13 31 15 219 15 151 0
222 -4 227 -11z m724 2 c0 -6 -5 -13 -11 -17 -8 -5 -372 -8 -541 -4 -5 0 -8 7
-8 15 0 13 38 15 280 15 168 0 280 -4 280 -9z"/>
<path d="M2450 2483 c-43 -15 -54 -82 -18 -107 37 -26 141 -17 157 13 15 29 1
78 -25 90 -26 11 -87 14 -114 4z m99 -12 c12 -8 10 -12 -12 -22 -15 -7 -27
-16 -27 -21 0 -5 -14 1 -30 14 -22 16 -27 24 -18 30 17 11 70 10 87 -1z m-58
-57 c14 -13 18 -13 28 0 6 7 21 16 31 19 30 8 26 -29 -5 -49 -45 -29 -115 -1
-115 46 0 14 38 4 61 -16z"/>
<path d="M2275 2290 c-123 -14 -265 -46 -283 -63 -13 -14 -13 -21 7 -69 54
-132 125 -185 285 -213 101 -17 323 -20 412 -5 125 21 177 42 224 90 49 48
100 139 100 177 0 30 -22 38 -169 64 -133 24 -444 34 -576 19z"/>
</g>
</svg>
